<svg xmlns="http://www.w3.org/2000/svg" version="1.1" xmlns:xlink="http://www.w3.org/1999/xlink" xmlns:svgjs="http://svgjs.dev/svgjs" width="128" height="128" viewBox="0 0 128 128"><g transform="matrix(0.8046875,0,0,0.8046875,12.333870967741937,12.333870967741937)"><svg viewBox="0 0 155 155" data-background-color="#ffffff" preserveAspectRatio="xMidYMid meet" height="128" width="128" xmlns="http://www.w3.org/2000/svg" xmlns:xlink="http://www.w3.org/1999/xlink"><g id="tight-bounds" transform="matrix(1,0,0,1,0.25,0.25)"><svg viewBox="0 0 154.5 154.5" height="154.5" width="154.5"><g><svg></svg></g><g><svg viewBox="0 0 154.5 154.5" height="154.5" width="154.5"><g transform="matrix(1,0,0,1,48.774161354508195,47.746371)"><svg viewBox="0 0 56.9516772909836 59.00725799999999" height="59.00725799999999" width="56.9516772909836"><g><svg viewBox="0 0 56.9516772909836 59.00725799999999" height="59.00725799999999" width="56.9516772909836"><g><svg viewBox="0 0 56.9516772909836 59.00725799999999" height="59.00725799999999" width="56.9516772909836"><g id="textblocktransform"><svg viewBox="0 0 56.9516772909836 59.00725799999999" height="59.00725799999999" width="56.9516772909836" id="textblock"><g><svg viewBox="0 0 56.9516772909836 59.00725799999999" height="59.00725799999999" width="56.9516772909836"><g transform="matrix(1,0,0,1,0,0)"><svg width="56.9516772909836" viewBox="2.3 -36.23 35.330000000000005 36.61" height="59.00725799999999" data-palette-color="#3c75b3"><path d="M37.63-17.9L37.63-17.9Q37.63-13.88 36.35-10.51 35.08-7.15 32.75-4.73 30.43-2.3 27.16-0.96 23.9 0.38 19.95 0.38L19.95 0.38Q16 0.38 12.75-0.96 9.5-2.3 7.18-4.73 4.85-7.15 3.58-10.51 2.3-13.88 2.3-17.9L2.3-17.9Q2.3-21.93 3.58-25.29 4.85-28.65 7.18-31.09 9.5-33.52 12.75-34.88 16-36.23 19.95-36.23L19.95-36.23Q23.9-36.23 27.16-34.88 30.43-33.52 32.75-31.09 35.08-28.65 36.35-25.29 37.63-21.93 37.63-17.9ZM32.65-17.9L32.65-17.9Q32.65-21.2 31.75-23.83 30.85-26.45 29.2-28.26 27.55-30.08 25.2-31.05 22.85-32.02 19.95-32.02L19.95-32.02Q17.07-32.02 14.73-31.05 12.38-30.08 10.71-28.26 9.05-26.45 8.15-23.83 7.25-21.2 7.25-17.9L7.25-17.9Q7.25-14.6 8.15-11.99 9.05-9.38 10.71-7.56 12.38-5.75 14.73-4.79 17.07-3.83 19.95-3.83L19.95-3.83Q22.85-3.83 25.2-4.79 27.55-5.75 29.2-7.56 30.85-9.38 31.75-11.99 32.65-14.6 32.65-17.9Z" opacity="1" transform="matrix(1,0,0,1,0,0)" fill="#3c75b3" class="wordmark-text-0" data-fill-palette-color="primary" id="text-0"></path></svg></g></svg></g></svg></g></svg></g><g></g></svg></g></svg></g><g><path d="M44.453 33.816A28.476 28.476 0 0 1 110.047 33.816L104.725 33.816A23.155 23.155 0 0 0 49.775 33.816L44.453 33.816M44.453 120.684A28.476 28.476 0 0 0 110.047 120.684L104.725 120.684A23.155 23.155 0 0 1 49.775 120.684L44.453 120.684" fill="#89939e" stroke="transparent" data-fill-palette-color="tertiary"></path></g></svg></g><defs></defs></svg><rect width="154.5" height="154.5" fill="none" stroke="none" visibility="hidden"></rect></g></svg></g></svg>